<svg width="94" height="133" viewBox="0 0 94 133" fill="none" xmlns="http://www.w3.org/2000/svg">
<rect width="94" height="133" fill="#1E1E1E"/>
<path d="M5 64C5 71.4694 10.3595 76.5589 13.2222 83C15.7551 88.699 16.8647 94.7278 19 100.778C19.9098 103.355 21.8445 107.511 22 110C22.9151 124.642 23 80.6705 23 66" stroke="white" stroke-width="3" stroke-linecap="round"/>
<path d="M21 98C29.5425 88.6982 37.6138 79.848 42.7222 68.0555C50.3719 50.3969 55.146 21.7179 38.4445 7.05555C20.0843 -9.06299 4.203 17.8795 2.33334 33.1667C0.29403 49.841 6.91139 67.0675 17.5 79.7222C24.7228 88.3544 36.8098 91.8958 47 95.7778C53.0032 98.0647 57.4583 101.921 63 105" stroke="white" stroke-width="3" stroke-linecap="round"/>
<path d="M91 76C91 77.4983 90.6888 78.3444 92 79" stroke="white" stroke-width="3" stroke-linecap="round"/>
<path d="M25 106C25 103.488 23.9338 98.0913 26.0556 96.5C29.9463 93.582 34.7815 92.6013 37 97.7778C40.1855 105.211 38.4969 96.2253 39.5556 92.4444C42.6372 81.4387 43.1455 95.4461 47.3333 95.1111C48.6335 95.0071 48 88.8972 48 87.8889C48 85.0738 47.3858 93.6133 48.1111 96.3333C48.7484 98.7232 50 97.0335 50 95.5C50 91.893 50.2651 94.3039 52 94.1111C53.5649 93.9372 53.2232 90.8328 54.4444 90.2222C56.5127 89.1881 60.6821 90 62.9444 90C70.8933 90 50.8629 89 56 89" stroke="white" stroke-width="3" stroke-linecap="round"/>
<path d="M56 89C56 87.2839 56.7887 81.2671 57 86.4444C57.1441 89.9742 58.2632 94.4985 62.5 94.9444C67.6828 95.49 70.783 91.2081 71 86C71.0404 85.0303 71 78.7183 71 81.1111C71 86.2037 71 91.2963 71 96.3889C71 103.396 72 110.232 72 117.278C72 120.532 72.3758 121.398 69.5556 123.278C66.1128 125.573 56.7696 133.923 52.1111 130.111C41.4467 121.386 81.3875 92.735 87 86" stroke="white" stroke-width="3" stroke-linecap="round"/>
<path d="M51 96C64.4695 86.1224 73.8412 71.9755 80.5 56.7778C81.8829 53.6216 91.3584 34.448 82.8889 32.4444C69.7709 29.3413 55.5766 46.3357 51.2222 56.6667C47.8806 64.5949 43.8984 77.7688 46.2222 86.4444C49.2345 97.6903 68.812 94.5117 77 94" stroke="white" stroke-width="3" stroke-linecap="round"/>
</svg>
